<svg width="500" height="500" viewBox="0 0 500 500" fill="none" xmlns="http://www.w3.org/2000/svg">
<path d="M241.04 196.56C254.168 196.56 264.81 185.918 264.81 172.79C264.81 159.662 254.168 149.02 241.04 149.02C227.912 149.02 217.27 159.662 217.27 172.79C217.27 185.918 227.912 196.56 241.04 196.56Z" fill="#0B0F2A"/>
<path fill-rule="evenodd" clip-rule="evenodd" d="M151.19 390.73V39.92C185.11 39.92 212.6 67.42 212.6 101.33V354.14C213.9 371.87 228.7 385.86 246.76 385.86C252.44 385.86 257.79 384.48 262.51 382.03L259.91 383.24L320.25 355.11L319.35 355.53C331.29 350.17 339.6 338.18 339.6 324.26C339.6 314.14 335.21 305.04 328.24 298.77L358.39 314.29V388.2L330.88 417.53L258.15 451.54C247.95 456.98 236.3 460.06 223.93 460.06C184.88 460.06 153.01 429.33 151.19 390.73Z" fill="#0B0F2A"/>
<path fill-rule="evenodd" clip-rule="evenodd" d="M267.14 237.67L330.83 301.36C344.22 316.32 352.31 341.69 352.31 360.28C352.31 382.21 344.16 402.19 330.84 417.54C389.77 387.19 422.17 368.96 423.98 337.63C425.79 306.29 398.36 282.42 396.55 280.6L307.06 191.11L308.76 192.81C303.15 186.75 295.13 182.96 286.23 182.96C269.28 182.96 255.54 196.7 255.54 213.64C255.54 223.38 260.07 232.05 267.14 237.67Z" fill="#2C65AC"/>
</svg>
